<?xml version="1.0" ?><svg id="Layer_1" style="enable-background:new 0 0 100 100;" version="1.1" viewBox="0 0 100 100" xml:space="preserve" xmlns="http://www.w3.org/2000/svg" xmlns:xlink="http://www.w3.org/1999/xlink"><style type="text/css">
	.st0{fill:none;}
	.st1{fill:none;stroke:#000000;stroke-width:0;stroke-linecap:round;stroke-linejoin:round;}
</style><title/><g><path class="st0" d="M38,36.2c0.7,1.2,1.6,2.3,2.7,3.2c0.4,0.3,1,0.5,1.5,0.5h0c0.8,0,1.5-0.3,2.2-0.8c0.6-0.4,1.1-1,1.3-1.7   c0-0.2,0.1-0.3,0.1-0.5c-0.1-0.7-0.3-1.4-0.7-2c-0.6-0.9-1.2-1.7-1.8-2.6c-5.3-7-10.3-16-13.4-21.4c-0.7-1.3-1.3-2.4-1.9-3.3   c-0.4-0.7-0.9-1.3-1.5-1.8c-0.3-0.2-0.6-0.4-1-0.4c-0.2,0-0.4-0.1-0.7-0.1c-0.9,0-1.8,0.3-2.6,0.8c-0.8,0.4-1.4,1.1-1.8,1.9   c-0.1,0.3-0.2,0.6-0.2,0.9c0,0.3,0.1,0.7,0.2,1c0.2,0.5,0.4,1,0.7,1.4c0.9,1.4,1.9,2.8,3,4.1c3.8,4.8,7.4,9.8,10.5,15   C35.9,32.7,37,34.7,38,36.2z"/><path class="st0" d="M29,40.6c0,0,0-0.1,0-0.1c-6.8,3.8-13.3,8-19.6,12.5c-1.1,0.7-2,1.7-2.8,2.7c-0.5,0.7-0.7,1.5-0.7,2.3   c0,0.9,0.3,1.9,0.7,2.7c0.3,0.5,0.6,1,0.9,1.5c8.1-5.6,16.4-10.9,24.9-15.9C30.9,44.7,29.8,42.8,29,40.6z"/><path class="st0" d="M31.7,39.7c0.9,2.7,2.7,5,5.1,6.6c2,1.3,4.4,2,6.8,2c0.5,0,1.1,0,1.6-0.1c1.1-0.1,2.2-0.4,3.2-0.7   c1.4-0.5,2.6-1.3,3.5-2.5c0.6-0.8,1.1-1.8,1.4-2.8c0.2-1,0.4-2,0.4-3c0-1-0.1-2.1-0.2-3.1c-0.3-2.4-1-4.7-2.1-6.8l0,0   c-0.1-0.1-0.1-0.2-0.1-0.3c-1.7,0.8-3.3,1.6-5,2.4c0.1,0.1,0.2,0.3,0.3,0.4c0.4,0.5,0.8,1.1,1.1,1.6c0.7,1,1.1,2.3,1.1,3.5   c0,0.4-0.1,0.8-0.2,1.3c-0.4,1.4-1.3,2.5-2.4,3.3c-1.1,0.8-2.4,1.3-3.8,1.3h0c-1.1,0-2.2-0.4-3.2-1c-0.9-0.7-1.7-1.5-2.4-2.4   c-0.4-0.6-0.8-1.2-1.2-1.8c-0.1-0.1-0.2-0.3-0.3-0.4c-1.3,0.7-2.5,1.4-3.8,2.1c0.1,0.1,0.2,0.2,0.3,0.4   C31.7,39.6,31.7,39.6,31.7,39.7z"/><path class="st0" d="M55.9,33.6c10-5,20.1-9.7,30.4-13.8c0-0.1,0-0.2-0.1-0.3c-0.2-0.7-0.4-1.5-0.7-2.2c-0.2-0.5-0.6-1-1-1.4   c-0.5-0.4-1.2-0.6-1.9-0.6c-1.5,0.1-3,0.5-4.3,1.2c-8.2,3.7-16.5,7.3-24.6,11.2c0.1,0.1,0.1,0.1,0.1,0.2   C54.7,29.7,55.4,31.6,55.9,33.6z"/><path class="st0" d="M87,22.5c-10.4,4.3-20.7,8.9-30.7,14c0.1,0.8,0.1,1.7,0.1,2.6c0,1.3-0.1,2.5-0.5,3.7c-0.4,1.4-1,2.7-1.9,3.8   c-1.2,1.5-2.9,2.7-4.7,3.4c-1.2,0.4-2.5,0.7-3.8,0.9c-0.7,0.1-1.3,0.1-2,0.1c-3,0-5.9-0.9-8.4-2.5c-0.1-0.1-0.3-0.2-0.4-0.3   c-8.7,5.1-17.1,10.5-25.4,16.2c1.6,1.8,3.6,3.6,5.3,5.5c6.8,7.5,13.8,14.9,20.8,22.1l-1,1l1-1c0.5,0.5,1,1.1,1.6,1.5   c0.5,0.4,1,0.7,1.6,0.8c0.3,0.1,0.5,0.1,0.8,0.1c0.8,0,1.5-0.2,2.2-0.5c0.8-0.4,1.7-0.8,2.4-1.3l47.4-29.4c0.8-0.4,1.4-0.9,2-1.6   c0.4-0.7,0.6-1.6,0.6-2.4c0-0.8-0.1-1.5-0.2-2.3C92.3,45.4,89.9,33.9,87,22.5z M88.1,49.3c-0.1,0.8-0.9,1.3-1.7,1.2l-5.4-0.8   c-0.3,3.6-0.7,7.3-1,10.9l0.1,0c0.8,0.1,1.3,0.9,1.2,1.7c-0.1,0.8-0.9,1.3-1.7,1.2h0c-0.2,0.3-0.6,0.6-1,0.7   c-0.8,0.1-1.5-0.4-1.7-1.1l-9.5-1.7c-0.1,3-0.2,5.9-0.2,8.9c0,0.2-0.1,0.5-0.2,0.7c-0.4,0.7-1.3,0.9-1.9,0.5   c0.4,0.3,0.7,0.9,0.6,1.4c-0.1,0.8-0.9,1.3-1.7,1.2l-9.2-1.7l-1.1,7.5c0,0,0,0,0,0c-0.1,0.8-0.9,1.3-1.6,1.2   c-0.8-0.1-1.3-0.9-1.2-1.6l1.1-7.6l-10.8-2c-0.2,2.9-0.5,5.9-0.7,8.8c2.9,0.5,5.8,1,8.8,1.4c0.8,0.1,1.3,0.9,1.2,1.6   c-0.1,0.8-0.8,1.3-1.6,1.2c-2.8-0.5-5.7-0.9-8.5-1.4c0,0.3,0,0.5-0.1,0.8c0,0,0,0,0,0c-0.1,0.8-0.8,1.4-1.6,1.3   c-0.8-0.1-1.4-0.8-1.3-1.6l0.1-1.1c-1.6-0.3-3.1-0.5-4.7-0.8c0,0,0,0,0,0c-0.8-0.1-1.3-0.9-1.2-1.7c0.1-0.8,0.9-1.3,1.7-1.2   c1.5,0.3,3,0.5,4.5,0.7c0.2-2.9,0.5-5.9,0.7-8.8l-8.9-1.6c-0.1,1.6-0.2,3.2-0.3,4.8c0,0.8-0.7,1.4-1.5,1.4c-0.8,0-1.4-0.7-1.4-1.5   c0.1-1.7,0.2-3.5,0.3-5.2l-4.1-0.7c-0.8-0.1-1.3-0.9-1.2-1.7c0.1-0.8,0.9-1.3,1.7-1.2l3.9,0.7c0.2-1.7,0.4-3.4,0.7-5.2   c0.1-0.8,0.8-1.3,1.6-1.2c0.8,0.1,1.3,0.8,1.2,1.6c-0.3,1.7-0.5,3.5-0.7,5.2l8.9,1.6c0.3-3.3,0.5-6.7,0.8-10c0,0,0-0.1,0-0.1   c0.1-0.8,0.8-1.4,1.6-1.3c0.8,0.1,1.4,0.8,1.3,1.6c-0.3,3.4-0.5,6.9-0.8,10.3l11,2L54,58.7l-8.3-1.5c0,0,0,0,0,0   c-0.8-0.2-1.3-0.9-1.1-1.7c0.2-0.8,0.9-1.3,1.7-1.1l8.2,1.5l0.9-5.9c0.1-0.8,0.8-1.3,1.6-1.2c0.8,0.1,1.3,0.8,1.2,1.6   c-0.3,2-0.6,4-0.9,6l7.7,1.4c0.2-3.5,0.6-7,1-10.4l-4.4-0.7c-0.8-0.1-1.3-0.8-1.2-1.6c0.1-0.8,0.8-1.3,1.6-1.2l4.3,0.6   c0.3-2.2,0.6-4.5,1-6.7c0.1-0.8,0.9-1.3,1.6-1.1c0.8,0.1,1.3,0.8,1.2,1.6c-0.4,2.2-0.7,4.4-1,6.6l9.5,1.4l1-10.2   c0.1-0.8,0.8-1.4,1.6-1.3c0.8,0.1,1.4,0.8,1.3,1.6c-0.3,3.4-0.6,6.9-1,10.3l5.5,0.8l0,0c0,0,0,0,0.1,0   C87.8,47.8,88.3,48.5,88.1,49.3z"/><path class="st0" d="M67.7,58.3l9.6,1.8c0.3-3.6,0.7-7.2,1-10.9l-9.6-1.4C68.3,51.3,67.9,54.8,67.7,58.3z"/><path class="st0" d="M64.5,70.1c0-3.1,0.1-6.3,0.2-9.4l-7.9-1.5c-0.5,3.4-1,6.8-1.5,10.2l9.3,1.7c0.1,0,0.3,0.1,0.4,0.2   C64.7,71,64.5,70.6,64.5,70.1z"/><path d="M96.8,56.6L96.8,56.6c-1.8-12.8-4.4-25.5-7.8-38c-0.2-0.9-0.5-1.8-0.9-2.6c-0.4-1-1.1-1.8-1.9-2.5c-1-0.8-2.3-1.2-3.6-1.2   c-1.9,0.1-3.8,0.6-5.5,1.5C66.1,18.8,55.2,23.7,44.4,29c-4.4-6.3-8.4-12.8-12-19.6c-0.8-1.5-1.6-2.9-2.6-4.3   c-0.4-0.6-1-1.1-1.5-1.6c-0.6-0.5-1.3-0.8-2.1-0.9c-0.4-0.1-0.8-0.1-1.3-0.1c-1.4,0-2.9,0.4-4.1,1.2c-1.3,0.7-2.4,1.9-3,3.2   c-0.3,0.7-0.5,1.4-0.5,2.1c0,0.7,0.1,1.4,0.4,2c0.5,1.2,1.1,2.4,1.9,3.4c1.3,1.8,3.1,4,5.2,6.8c2.6,3.5,5.1,7.1,7.3,10.8   c0.5,0.9,1,1.7,1.5,2.6c-9,4.8-17.7,10.2-26,16.1c-1.4,0.9-2.6,2.2-3.5,3.6C3.4,55.4,3,56.7,3,58.1c0,1.4,0.4,2.8,1.1,4   c1.1,1.9,2.4,3.6,4,5.2c1.5,1.6,3.2,3.2,4.5,4.7c6.8,7.5,13.8,14.9,20.9,22.2c0.6,0.6,1.2,1.2,1.9,1.8c0.8,0.6,1.7,1.1,2.6,1.3   c0.5,0.1,1,0.2,1.5,0.2c1.2,0,2.3-0.3,3.4-0.8c1-0.4,1.9-1,2.8-1.5L93,65.8c1.1-0.6,2.1-1.4,2.8-2.4c0.8-1.2,1.2-2.6,1.1-4   C97,58.4,96.9,57.5,96.8,56.6z M17.8,6.9L17.8,6.9L17.8,6.9z M78.2,16.5c1.4-0.7,2.8-1.1,4.3-1.2c0.7,0,1.3,0.2,1.9,0.6   c0.5,0.4,0.8,0.9,1,1.4c0.3,0.7,0.5,1.4,0.7,2.2c0,0.1,0,0.2,0.1,0.3c-10.3,4.2-20.4,8.8-30.4,13.8c-0.4-2-1.1-3.9-2.1-5.6   c0-0.1-0.1-0.1-0.1-0.2C61.8,23.9,70,20.2,78.2,16.5z M24.1,15.5c-1.1-1.3-2.1-2.7-3-4.1c-0.3-0.4-0.5-0.9-0.7-1.4   c-0.1-0.3-0.2-0.7-0.2-1c0-0.3,0.1-0.7,0.2-0.9c0.4-0.8,1-1.5,1.8-1.9c0.8-0.5,1.7-0.8,2.6-0.8c0.2,0,0.4,0,0.7,0.1   c0.3,0.1,0.7,0.2,1,0.4C27.1,6.4,27.6,7,28,7.6c0.5,0.9,1.1,2,1.9,3.3C33,16.4,38,25.3,43.3,32.3c0.6,0.8,1.3,1.7,1.8,2.6   c0.4,0.6,0.7,1.3,0.7,2c0,0.2,0,0.4-0.1,0.5c-0.2,0.7-0.7,1.3-1.3,1.7c-0.6,0.5-1.4,0.7-2.2,0.8h0c-0.6,0-1.1-0.2-1.5-0.5   c-1.1-0.9-2-2-2.7-3.2c-1-1.5-2.1-3.5-3.4-5.6C31.4,25.3,27.9,20.3,24.1,15.5z M35.1,37.1c0.1,0.1,0.2,0.3,0.3,0.4   c0.4,0.6,0.8,1.3,1.2,1.8c0.7,0.9,1.5,1.8,2.4,2.4c0.9,0.7,2,1,3.2,1h0c1.4,0,2.7-0.5,3.8-1.3c1.2-0.8,2-2,2.4-3.3   c0.1-0.4,0.2-0.8,0.2-1.3c0-1.2-0.4-2.5-1.1-3.5c-0.3-0.6-0.7-1.1-1.1-1.6c-0.1-0.1-0.2-0.3-0.3-0.4c1.7-0.8,3.3-1.6,5-2.4   c0,0.1,0.1,0.2,0.1,0.3l0,0c1.1,2.1,1.8,4.4,2.1,6.8c0.1,1,0.2,2.1,0.2,3.1c0,1-0.1,2-0.4,3c-0.3,1-0.7,1.9-1.4,2.8   c-0.9,1.1-2.1,2-3.5,2.5c-1,0.4-2.1,0.6-3.2,0.7c-0.5,0.1-1.1,0.1-1.6,0.1c-2.4,0-4.8-0.7-6.8-2c-2.4-1.6-4.1-3.9-5.1-6.6   c0-0.1-0.1-0.1-0.1-0.2c-0.1-0.1-0.2-0.2-0.3-0.4C32.6,38.4,33.9,37.8,35.1,37.1z M7.6,62.3c-0.4-0.5-0.7-1-0.9-1.5   c-0.5-0.8-0.7-1.7-0.7-2.7c0-0.8,0.3-1.6,0.7-2.3c0.7-1.1,1.7-2,2.8-2.7c6.3-4.5,12.9-8.7,19.6-12.5c0,0,0,0.1,0,0.1   c0.7,2.1,1.9,4.1,3.5,5.7C24,51.4,15.7,56.7,7.6,62.3z M93.5,61.7c-0.6,0.7-1.2,1.2-2,1.6L44.1,92.7c-0.8,0.5-1.6,1-2.4,1.3   c-0.7,0.3-1.4,0.5-2.2,0.5c-0.3,0-0.5,0-0.8-0.1c-0.6-0.2-1.1-0.5-1.6-0.8c-0.6-0.5-1.1-1-1.6-1.5l-1,1l1-1   c-7.1-7.3-14-14.6-20.8-22.1c-1.7-1.8-3.6-3.7-5.3-5.5c8.3-5.7,16.7-11.1,25.4-16.2c0.1,0.1,0.3,0.2,0.4,0.3   c2.5,1.6,5.4,2.5,8.4,2.5c0.7,0,1.3,0,2-0.1c1.3-0.2,2.6-0.5,3.8-0.9c1.9-0.7,3.5-1.8,4.7-3.4c0.9-1.1,1.5-2.4,1.9-3.8   c0.3-1.2,0.5-2.5,0.5-3.7c0-1-0.1-1.8-0.1-2.6c10-5.1,20.3-9.8,30.7-14c3,11.4,5.3,22.9,6.9,34.5c0.1,0.8,0.2,1.5,0.2,2.3   C94.2,60.2,94,61,93.5,61.7z"/><line class="st1" x1="17.8" x2="17.8" y1="6.9" y2="6.9"/><path d="M87,47.6C87,47.6,86.9,47.6,87,47.6L87,47.6l-5.6-0.8c0.3-3.4,0.6-6.9,1-10.3c0.1-0.8-0.5-1.5-1.3-1.6   c-0.8-0.1-1.5,0.5-1.6,1.3l-1,10.2L69,44.9c0.3-2.2,0.6-4.4,1-6.6c0.1-0.8-0.4-1.5-1.2-1.6c-0.8-0.1-1.5,0.4-1.6,1.1   c-0.4,2.2-0.7,4.5-1,6.7l-4.3-0.6c-0.8-0.1-1.5,0.4-1.6,1.2c-0.1,0.8,0.4,1.5,1.2,1.6l4.4,0.7c-0.4,3.5-0.7,7-1,10.4l-7.7-1.4   c0.3-2,0.6-4,0.9-6c0.1-0.8-0.4-1.5-1.2-1.6c-0.8-0.1-1.5,0.4-1.6,1.2l-0.9,5.9l-8.2-1.5c-0.8-0.2-1.5,0.3-1.7,1.1   c-0.2,0.8,0.3,1.5,1.1,1.7c0,0,0,0,0,0l8.3,1.5l-1.5,10.2l-11-2c0.3-3.4,0.5-6.9,0.8-10.3c0.1-0.8-0.5-1.5-1.3-1.6   c-0.8-0.1-1.5,0.5-1.6,1.3c0,0,0,0.1,0,0.1c-0.3,3.3-0.5,6.7-0.8,10l-8.9-1.6c0.2-1.7,0.4-3.5,0.7-5.2c0.1-0.8-0.4-1.5-1.2-1.6   c-0.8-0.1-1.5,0.4-1.6,1.2c-0.3,1.7-0.5,3.4-0.7,5.2l-3.9-0.7c-0.8-0.1-1.5,0.4-1.7,1.2c-0.1,0.8,0.4,1.5,1.2,1.7l4.1,0.7   c-0.1,1.7-0.3,3.5-0.3,5.2c0,0.8,0.6,1.5,1.4,1.5c0.8,0,1.5-0.6,1.5-1.4c0.1-1.6,0.2-3.2,0.3-4.8l8.9,1.6c-0.2,2.9-0.5,5.9-0.7,8.8   c-1.5-0.2-3-0.5-4.5-0.7c-0.8-0.1-1.5,0.4-1.7,1.2c-0.1,0.8,0.4,1.5,1.2,1.7c0,0,0,0,0,0c1.6,0.3,3.1,0.5,4.7,0.8l-0.1,1.1   c-0.1,0.8,0.5,1.5,1.3,1.6c0.8,0.1,1.5-0.5,1.6-1.3c0,0,0,0,0,0c0-0.3,0-0.5,0.1-0.8c2.8,0.5,5.7,1,8.5,1.4   c0.8,0.1,1.5-0.4,1.6-1.2c0.1-0.8-0.4-1.5-1.2-1.6c-2.9-0.5-5.8-1-8.8-1.4c0.2-2.9,0.5-5.9,0.7-8.8l10.8,2L51,79.4   c-0.1,0.8,0.4,1.5,1.2,1.6c0.8,0.1,1.5-0.4,1.6-1.2c0,0,0,0,0,0l1.1-7.5l9.2,1.7c0.8,0.1,1.5-0.4,1.7-1.2c0.1-0.5-0.1-1.1-0.6-1.4   c0.7,0.4,1.6,0.1,1.9-0.5c0.1-0.2,0.2-0.5,0.2-0.7c0-3,0.1-5.9,0.2-8.9l9.5,1.7c0.1,0.8,0.9,1.3,1.7,1.1c0.4-0.1,0.7-0.3,1-0.7h0   c0.8,0.1,1.5-0.4,1.7-1.2c0.1-0.8-0.4-1.5-1.2-1.7l-0.1,0c0.3-3.7,0.7-7.3,1-10.9l5.4,0.8c0.8,0.1,1.5-0.4,1.7-1.2   C88.3,48.5,87.8,47.8,87,47.6z M64.7,71.1l-9.3-1.7c0.5-3.4,1-6.8,1.5-10.2l7.9,1.5c-0.2,3.1-0.2,6.3-0.2,9.4   c0,0.5,0.2,0.9,0.6,1.2C64.9,71.2,64.8,71.2,64.7,71.1z M77.3,60.1l-9.6-1.8c0.2-3.5,0.5-7,1-10.5l9.6,1.4   C77.9,52.9,77.6,56.5,77.3,60.1z"/></g></svg>